<svg width="960" height="540" viewBox="0 0 960 540" fill="none" xmlns="http://www.w3.org/2000/svg">
  <defs>
    <linearGradient id="sky" x1="0" y1="0" x2="1" y2="1">
      <stop offset="0%" stop-color="#F8E7D2"/>
      <stop offset="50%" stop-color="#F1F6F4"/>
      <stop offset="100%" stop-color="#E5F0EE"/>
    </linearGradient>
    <linearGradient id="grass" x1="0" y1="0" x2="1" y2="0">
      <stop offset="0%" stop-color="#B6E2C7"/>
      <stop offset="100%" stop-color="#8FD1B1"/>
    </linearGradient>
  </defs>
  <rect width="960" height="540" fill="url(#sky)"/>
  <rect y="360" width="960" height="180" fill="url(#grass)"/>
  <rect x="180" y="210" width="220" height="180" rx="16" fill="#FFFFFF" stroke="#1A2C2A" stroke-width="4"/>
  <rect x="230" y="240" width="60" height="60" fill="#FFD6B8" stroke="#1A2C2A" stroke-width="4"/>
  <rect x="310" y="240" width="60" height="60" fill="#FFD6B8" stroke="#1A2C2A" stroke-width="4"/>
  <rect x="230" y="320" width="140" height="70" fill="#E8F0F0" stroke="#1A2C2A" stroke-width="4"/>
  <path d="M160 210L290 130L420 210" fill="#0F766E" stroke="#1A2C2A" stroke-width="4"/>
  <rect x="520" y="180" width="240" height="220" rx="16" fill="#FFFFFF" stroke="#1A2C2A" stroke-width="4"/>
  <rect x="560" y="210" width="70" height="80" fill="#FFE3A3" stroke="#1A2C2A" stroke-width="4"/>
  <rect x="650" y="210" width="70" height="80" fill="#FFE3A3" stroke="#1A2C2A" stroke-width="4"/>
  <rect x="560" y="310" width="160" height="70" fill="#E8F0F0" stroke="#1A2C2A" stroke-width="4"/>
  <path d="M500 180L640 90L780 180" fill="#F28F5B" stroke="#1A2C2A" stroke-width="4"/>
  <circle cx="120" cy="120" r="36" fill="#FFCC66" stroke="#1A2C2A" stroke-width="4"/>
  <path d="M140 120C200 90 260 90 320 120" stroke="#1A2C2A" stroke-width="4" stroke-linecap="round"/>
</svg>
